# xmcd
#
# Track frame offsets:
#	150
#	11625
#	24502
#	38022
#	52832
#	66087
#	83677
#	95615
#	110490
#	125162
#
# Disc length: 1888 seconds
#
# Revision: 0
# Processed by: cddbd v1.4PL0 Copyright (c) Steve Scherf et al.
# Submitted via: dBpowerAMP V4.0
#
DISCID=79075e0a
DTITLE=Sonny Burgess - When In Texas
DYEAR=2002
DGENRE=Country
TTITLE0=When In Texas
TTITLE1=It Must Have Been Something I Said
TTITLE2=Smack Dab
TTITLE3=I Keep It Under My Hat
TTITLE4=Turn For The Worse
TTITLE5=Alone With You
TTITLE6=A Womans Touch
TTITLE7=Basic Love
TTITLE8=Tears In The Eyes Of Texas
TTITLE9=Somewhere Under The Rainbow
EXTD=
EXTT0=
EXTT1=
EXTT2=
EXTT3=
EXTT4=
EXTT5=
EXTT6=
EXTT7=
EXTT8=
EXTT9=
PLAYORDER=
